HIERARCHY
ROOT RightHand
{
  OFFSET 0.00 0.00 0.00
  CHANNELS 6 Xposition Yposition Zposition Zrotation Xrotation Yrotation
  JOINT RightHandThumb1
  {
    OFFSET 0.50 0.00 0.00
    CHANNELS 3 Zrotation Xrotation Yrotation
    JOINT RightHandThumb2
    {
      OFFSET 0.50 0.00 0.00
      CHANNELS 3 Zrotation Xrotation Yrotation
      JOINT RightHandThumb3
      {
        OFFSET 0.50 0.00 0.00
        CHANNELS 3 Zrotation Xrotation Yrotation
        End Site
        {
          OFFSET 0.30 0.00 0.00
        }
      }
    }
  }
  JOINT RightHandIndex1
  {
    OFFSET 0.50 0.00 0.00
    CHANNELS 3 Zrotation Xrotation Yrotation
    JOINT RightHandIndex2
    {
      OFFSET 0.50 0.00 0.00
      CHANNELS 3 Zrotation Xrotation Yrotation
      JOINT RightHandIndex3
      {
        OFFSET 0.50 0.00 0.00
        CHANNELS 3 Zrotation Xrotation Yrotation
        End Site
        {
          OFFSET 0.30 0.00 0.00
        }
      }
    }
  }
  JOINT RightHandMiddle1
  {
    OFFSET 0.50 0.00 0.00
    CHANNELS 3 Zrotation Xrotation Yrotation
    JOINT RightHandMiddle2
    {
      OFFSET 0.50 0.00 0.00
      CHANNELS 3 Zrotation Xrotation Yrotation
      JOINT RightHandMiddle3
      {
        OFFSET 0.50 0.00 0.00
        CHANNELS 3 Zrotation Xrotation Yrotation
        End Site
        {
          OFFSET 0.30 0.00 0.00
        }
      }
    }
  }
  JOINT RightHandRing1
  {
    OFFSET 0.50 0.00 0.00
    CHANNELS 3 Zrotation Xrotation Yrotation
    JOINT RightHandRing2
    {
      OFFSET 0.50 0.00 0.00
      CHANNELS 3 Zrotation Xrotation Yrotation
      JOINT RightHandRing3
      {
        OFFSET 0.50 0.00 0.00
        CHANNELS 3 Zrotation Xrotation Yrotation
        End Site
        {
          OFFSET 0.30 0.00 0.00
        }
      }
    }
  }
  JOINT RightHandPinky1
  {
    OFFSET 0.50 0.00 0.00
    CHANNELS 3 Zrotation Xrotation Yrotation
    JOINT RightHandPinky2
    {
      OFFSET 0.50 0.00 0.00
      CHANNELS 3 Zrotation Xrotation Yrotation
      JOINT RightHandPinky3
      {
        OFFSET 0.50 0.00 0.00
        CHANNELS 3 Zrotation Xrotation Yrotation
        End Site
        {
          OFFSET 0.30 0.00 0.00
        }
      }
    }
  }
}
MOTION
Frames: 10
Frame Time: 0.0166667
0.0000 0.0000 0.0000 0.0000 0.0000 0.0000 0.0000 0.0000 0.0000 0.0000 0.0000 0.0000 0.0000 0.0000 0.0000 0.0000 0.0000 0.0000 0.0000 0.0000 0.0000 0.0000 0.0000 0.0000 0.0000 0.0000 0.0000 0.0000 0.0000 0.0000 0.0000 0.0000 0.0000 0.0000 0.0000 0.0000 0.0000 0.0000 0.0000 0.0000 0.0000 0.0000 0.0000 0.0000 0.0000 0.0000 0.0000 0.0000 0.0000 0.0000 0.0000
0.0000 0.0000 0.0000 0.0000 0.0000 0.0000 3.3333 0.0000 0.5556 3.3333 0.0000 0.0000 3.3333 0.0000 0.0000 3.3333 0.0000 0.0000 3.3333 0.0000 0.0000 3.3333 0.0000 0.0000 3.3333 0.0000 0.0000 3.3333 0.0000 0.0000 3.3333 0.0000 0.0000 3.3333 0.0000 0.0000 3.3333 0.0000 0.0000 3.3333 0.0000 0.0000 3.3333 0.0000 0.0000 3.3333 0.0000 0.0000 3.3333 0.0000 0.0000
0.0000 0.0000 0.0000 0.0000 0.0000 0.0000 6.6667 0.0000 1.1111 6.6667 0.0000 0.0000 6.6667 0.0000 0.0000 6.6667 0.0000 0.0000 6.6667 0.0000 0.0000 6.6667 0.0000 0.0000 6.6667 0.0000 0.0000 6.6667 0.0000 0.0000 6.6667 0.0000 0.0000 6.6667 0.0000 0.0000 6.6667 0.0000 0.0000 6.6667 0.0000 0.0000 6.6667 0.0000 0.0000 6.6667 0.0000 0.0000 6.6667 0.0000 0.0000
0.0000 0.0000 0.0000 0.0000 0.0000 0.0000 10.0000 0.0000 1.6667 10.0000 0.0000 0.0000 10.0000 0.0000 0.0000 10.0000 0.0000 0.0000 10.0000 0.0000 0.0000 10.0000 0.0000 0.0000 10.0000 0.0000 0.0000 10.0000 0.0000 0.0000 10.0000 0.0000 0.0000 10.0000 0.0000 0.0000 10.0000 0.0000 0.0000 10.0000 0.0000 0.0000 10.0000 0.0000 0.0000 10.0000 0.0000 0.0000 10.0000 0.0000 0.0000
0.0000 0.0000 0.0000 0.0000 0.0000 0.0000 13.3333 0.0000 2.2222 13.3333 0.0000 0.0000 13.3333 0.0000 0.0000 13.3333 0.0000 0.0000 13.3333 0.0000 0.0000 13.3333 0.0000 0.0000 13.3333 0.0000 0.0000 13.3333 0.0000 0.0000 13.3333 0.0000 0.0000 13.3333 0.0000 0.0000 13.3333 0.0000 0.0000 13.3333 0.0000 0.0000 13.3333 0.0000 0.0000 13.3333 0.0000 0.0000 13.3333 0.0000 0.0000
0.0000 0.0000 0.0000 0.0000 0.0000 0.0000 16.6667 0.0000 2.7778 16.6667 0.0000 0.0000 16.6667 0.0000 0.0000 16.6667 0.0000 0.0000 16.6667 0.0000 0.0000 16.6667 0.0000 0.0000 16.6667 0.0000 0.0000 16.6667 0.0000 0.0000 16.6667 0.0000 0.0000 16.6667 0.0000 0.0000 16.6667 0.0000 0.0000 16.6667 0.0000 0.0000 16.6667 0.0000 0.0000 16.6667 0.0000 0.0000 16.6667 0.0000 0.0000
0.0000 0.0000 0.0000 0.0000 0.0000 0.0000 20.0000 0.0000 3.3333 20.0000 0.0000 0.0000 20.0000 0.0000 0.0000 20.0000 0.0000 0.0000 20.0000 0.0000 0.0000 20.0000 0.0000 0.0000 20.0000 0.0000 0.0000 20.0000 0.0000 0.0000 20.0000 0.0000 0.0000 20.0000 0.0000 0.0000 20.0000 0.0000 0.0000 20.0000 0.0000 0.0000 20.0000 0.0000 0.0000 20.0000 0.0000 0.0000 20.0000 0.0000 0.0000
0.0000 0.0000 0.0000 0.0000 0.0000 0.0000 23.3333 0.0000 3.8889 23.3333 0.0000 0.0000 23.3333 0.0000 0.0000 23.3333 0.0000 0.0000 23.3333 0.0000 0.0000 23.3333 0.0000 0.0000 23.3333 0.0000 0.0000 23.3333 0.0000 0.0000 23.3333 0.0000 0.0000 23.3333 0.0000 0.0000 23.3333 0.0000 0.0000 23.3333 0.0000 0.0000 23.3333 0.0000 0.0000 23.3333 0.0000 0.0000 23.3333 0.0000 0.0000
0.0000 0.0000 0.0000 0.0000 0.0000 0.0000 26.6667 0.0000 4.4444 26.6667 0.0000 0.0000 26.6667 0.0000 0.0000 26.6667 0.0000 0.0000 26.6667 0.0000 0.0000 26.6667 0.0000 0.0000 26.6667 0.0000 0.0000 26.6667 0.0000 0.0000 26.6667 0.0000 0.0000 26.6667 0.0000 0.0000 26.6667 0.0000 0.0000 26.6667 0.0000 0.0000 26.6667 0.0000 0.0000 26.6667 0.0000 0.0000 26.6667 0.0000 0.0000
0.0000 0.0000 0.0000 0.0000 0.0000 0.0000 30.0000 0.0000 5.0000 30.0000 0.0000 0.0000 30.0000 0.0000 0.0000 30.0000 0.0000 0.0000 30.0000 0.0000 0.0000 30.0000 0.0000 0.0000 30.0000 0.0000 0.0000 30.0000 0.0000 0.0000 30.0000 0.0000 0.0000 30.0000 0.0000 0.0000 30.0000 0.0000 0.0000 30.0000 0.0000 0.0000 30.0000 0.0000 0.0000 30.0000 0.0000 0.0000 30.0000 0.0000 0.0000
